<svg width="81" height="88" viewBox="0 0 81 88" fill="none" xmlns="http://www.w3.org/2000/svg">
<path d="M42.5803 0.775958C36.6236 1.29711 32.0962 6.5572 32.6169 12.5147L35.2968 43.1484L25.162 47.8737C21.7678 41.9758 14.3668 39.5553 8.08457 42.4851C1.45122 45.5796 -1.41826 53.4629 1.67428 60.0972C4.76801 66.73 12.6523 69.6014 19.2873 66.5077C23.8398 64.3847 26.6184 60.004 26.9143 55.3217L39.3265 49.5334L40.5196 63.1756C36.6133 65.7735 34.209 70.3699 34.6457 75.3737C35.2841 82.6663 41.7121 88.0584 49.003 87.4213C56.2956 86.7829 61.6885 80.3554 61.0511 73.0644C60.447 66.1595 54.6501 60.9606 47.8458 60.9691L46.8707 49.8295L74.7388 36.8339C80.1593 34.3067 82.4502 27.7553 79.9231 22.336L45.8559 38.2239L42.5803 0.775958ZM19.6756 57.9209C17.7785 61.2068 13.5764 62.3327 10.2905 60.4356C7.00455 58.5385 5.87869 54.3363 7.77576 51.0505C9.67333 47.7638 13.8749 46.6386 17.1609 48.5357C20.4468 50.4329 21.5732 54.6342 19.6756 57.9209ZM53.7886 77.616C51.8914 80.9019 47.6894 82.0279 44.4034 80.1307C41.1175 78.2336 39.9916 74.0315 41.8887 70.7456C43.7863 67.4589 47.9879 66.3337 51.2738 68.2308C54.5597 70.1279 55.6861 74.3293 53.7886 77.616Z" fill="#99BAED"/>
</svg>
